<?xml version="1.0" encoding="UTF-8" standalone="no"?>
<svg
   xmlns:dc="http://purl.org/dc/elements/1.1/"
   xmlns:cc="http://creativecommons.org/ns#"
   xmlns:rdf="http://www.w3.org/1999/02/22-rdf-syntax-ns#"
   xmlns:svg="http://www.w3.org/2000/svg"
   xmlns="http://www.w3.org/2000/svg"
   xmlns:sodipodi="http://sodipodi.sourceforge.net/DTD/sodipodi-0.dtd"
   xmlns:inkscape="http://www.inkscape.org/namespaces/inkscape"
   version="1.1"
   viewBox="0 0 2031.7 2031.7"
   id="svg24"
   sodipodi:docname="ginko.svg"
   inkscape:version="0.92.3 (2405546, 2018-03-11)">
  <defs
     id="defs28" />
  <path
     d="m1025.2 2018.7c-3.4273-1.9932-4.5155-5.4205-4.2089-13.256 0.7215-18.443 0.2176-19.631-14.209-33.493-17.769-17.073-17.999-23.632-1.2411-35.4 6.979-4.9011 12.067-10.78 13.355-15.431 2.5768-9.3027 7.3545-115.55 5.3424-118.81-0.8038-1.3005-1.3003-98.506-1.1035-216.01 0.2702-161.25 1.2809-226.1 4.1216-264.44 9.5201-128.48 3.103-188.28-26.576-247.65-23.551-47.115-68.437-87.846-126.33-114.63-28.028-12.97-82.846-31.356-112.47-37.724-34.63-7.4441-88.115-9.2181-121.83-4.041-50.015 7.6805-89.554 22.986-161.35 62.459-37.052 20.371-83.654 42.971-97.546 47.305-11.804 3.6823-28.034 4.4797-37.822 1.8582-3.8852-1.0406-8.3983-6.6246-13.463-16.657-5.9713-11.829-9.6243-15.93-16.898-18.969-8.6732-3.6239-10.154-3.5155-22.635 1.6576-20.929 8.6748-22.43 7.5227-22.43-17.224 0-27.451-5.4746-31.635-27.014-20.647-12.999 6.6318-17.43 5.0349-17.43-6.2814 0-12.844 3.4793-20.158 19.062-40.074 14.869-19.003 17.532-28.484 8.6531-30.806-4.9241-1.2877-5.2396-2.868-4.4444-22.259l0.85591-20.873-7.619-4.2714c-10.723-6.0116-13.181-14.786-9.1046-32.498 6.4426-27.992 6.3532-30.006-2.0499-46.152-4.3412-8.3414-7.8932-16.84-7.8932-18.885s4.0631-9.042 9.0291-15.548c7.2061-9.4404 8.4252-12.556 6.0382-15.433-1.645-1.9821-4.5652-3.6038-6.4895-3.6038-5.2062 0-4.2717-3.7708 3.108-12.541 7.9608-9.4609 6.7097-14.008-5.2262-18.995-11.336-4.7367-11.359-9.3441-0.1105-22.485 10.158-11.868 10.944-17.746 3.8095-28.518-6.9838-10.545-6.34-17.885 2.2394-25.53 4.8796-4.3478 7.8814-10.039 9.0068-17.077 2.179-13.627 9.3557-22.726 31.496-39.933 13.767-10.7 19.159-16.798 23.043-26.062 6.0058-14.327 9.7877-16.336 20.409-10.843 9.9339 5.137 12.434 3.595 14.432-8.9015 2.6286-16.439 5.4101-18.556 19.66-14.968 10.022 2.5236 12.785 2.4423 15.689-0.46177 3.9166-3.9179 2.4244-7.2057-5.1814-11.416-7.1769-3.9731-7.7071-10.612-1.5163-18.985 3.6787-4.9758 5.3258-10.998 5.3258-19.471 0-24.609 13.268-60.802 29.833-81.377 6.4752-8.0427 15.364-14.206 33.917-23.516 30.032-15.071 32.791-18.377 57.819-69.289 24.858-50.567 35.481-61.882 63.793-67.954 14.148-3.0343 18.734-7.8889 21.374-22.627 2.4454-13.652 4.7656-15.619 22.066-18.715 15.137-2.7082 16.246-3.3889 19.171-11.762 1.7072-4.8884 3.7684-11.999 4.5804-15.802 2.1419-10.03 9.6343-15.822 27.446-21.215 8.6527-2.6198 19.348-7.9379 23.767-11.818 4.4191-3.88 12.451-8.899 17.849-11.153 5.3977-2.2543 15.388-8.7648 22.202-14.468 17.501-14.649 25.91-14.298 41.26 1.7208 11.536 12.039 11.64 12.083 24.683 10.517 12.465-1.4967 13.765-1.0671 26.892 8.8904 9.9209 7.525 15.983 10.347 21.587 10.051 4.2861-0.22669 9.2857-0.29638 11.11-0.15484 4.1243 0.3199 12.013 17.784 15.622 34.584 5.872 27.336 15.915 39.149 33.508 39.414 9.3471 0.14101 17.33 5.7999 23.369 16.566 4.0009 7.1326 8.4899 10.988 16.044 13.778 22.482 8.3046 27.347 17.981 32.525 64.683 2.395 21.602 6.9817 44.628 12.955 65.035 18.449 63.032 21.809 77.661 23.003 100.16 0.66735 12.571 1.8871 25.714 2.7106 29.206 1.4157 6.0036 1.6158 5.8653 3.6746-2.5397 6.3317-25.848-10.64-136.38-28.555-185.97-23.267-64.404-23.65-68.384-6.9081-71.76 4.6292-0.93333 10.3-2.2231 12.602-2.8662 2.3021-0.64307 6.6458-7.2309 9.6528-14.64 4.2011-10.351 7.5093-14.444 14.285-17.675 9.5853-4.5709 13.782-12.446 13.782-25.865 0-11.078 4.582-21.041 10.547-22.934 8.5451-2.7121 10.509-10.362 7.0845-27.593-6.016-30.266-0.2857-39.586 24.34-39.586 11.077 0 21.521-6.7788 21.521-13.968 0-5.8834 10.435-13.968 18.029-13.968 5.7232 0 11.083 3.2257 21.099 12.698 15.176 14.353 21.368 15.626 37.063 7.619 19.595-9.9965 33.423-4.6905 50.888 19.526 15.466 21.445 21.858 26.16 35.478 26.175 17.976 0.01981 27.102 3.8353 42.216 17.649l14.049 12.84h31.668c22.95 0 33.663 1.0317 38.915 3.748 8.3262 4.3056 16.561 16.653 19.094 28.63 2.2498 10.638 9.9411 15.876 23.311 15.876 18.359 0 23.422 11.818 32.637 76.19 7.161 50.018 6.9383 49.201 13.966 51.287 3.492 1.0365 10.524 2.5234 15.626 3.3042 11.326 1.7333 16.016 8.2083 21.527 29.718 6.5903 25.724 12.462 31.36 31.586 30.319 7.2853-0.39672 10.856 1.2548 18.258 8.4436 8.554 8.3076 10.016 8.8252 20.764 7.3521 10.975-1.5043 12.009-1.096 20.382 8.0448 13.947 15.227 21.238 18.956 37.096 18.975 16.283 0.0203 21.264 3.9372 35.543 27.953 4.5675 7.6825 10.689 16.647 13.603 19.92 7.0294 7.8973 36.149 24.717 46.74 26.998 9.7727 2.1045 12.41 6.8208 8.5495 15.293-2.2209 4.8742-1.8028 7.2061 2.2058 12.302 5.9591 7.5758 6.1187 10.225 1.0793 17.916-4.4886 6.8505-1.7018 10.616 8.9461 12.089 5.7349 0.7933 6.473 2.2664 7.6286 15.225 0.7104 7.9673 3.1152 16.437 5.408 19.048 6.4449 7.3376 12.457 20.541 11.038 24.24-0.7157 1.8651 1.2646 4.4724 4.4624 5.8752 3.162 1.3871 7.7763 6.8464 10.254 12.132 2.5603 5.4615 7.2897 10.668 10.956 12.062 5.34 2.0303 6.3141 3.8515 5.6539 10.572-0.8452 8.6047-0.4217 8.8694 21.425 13.392 7.8683 1.6287 8.7249 5.8541 3.3096 16.326-3.185 6.159-3.1978 9.15-0.096 22.447 3.6003 15.433 2.8898 22.145-3.8856 36.708-2.6415 5.6778-2.478 8.5784 0.9693 17.194 6.0309 15.072 5.2554 19.325-5.7019 31.271-8.4216 9.181-10.299 13.43-12.957 29.324-3.7646 22.511-12.086 32.395-34.815 41.349-19.948 7.8591-73.24 9.4678-124.93 3.7711-71.015-7.8268-139.67-4.385-195.85 9.819-37.461 9.47-53.826 15.563-92.707 34.521-91.295 44.512-176.42 114.84-213.9 176.71-28.573 47.171-43.638 110.76-51.373 216.83-3.9224 53.79-4.0762 577.71-0.187 636.37 4.5646 68.851-0.8044 94.912-22.576 109.58-9.2636 6.2427-25.906 7.6829-34.049 2.9467zm23.387-39.778c5.2851-10.36 10.565-34.782 10.241-47.37-0.1102-4.2831-0.8042-6.0732-1.542-3.978-0.7379 2.0953-5.834 13.723-11.325 25.84-7.1622 15.805-9.5192 23.878-8.3414 28.571 2.265 9.0243 5.2219 8.1985 10.967-3.063zm12.972-659.6c1.5428-55.873 15.815-208.89 16.371-221.46 1.2749-28.846-17.502 138.24-21.462 197.34-4.0465 60.377-6.1969 303.85-3.5353 400.27l2.1659 78.461 1.8278-176.51c1.0053-97.079 3.0901-222.22 4.6328-278.1zm-49.715-293.97c-4.9091-15.481-49.826-71.474-74.669-93.082-19.343-16.824-50.57-39.064-72.393-51.559-9.7994-5.6107-38.96-22.535-64.801-37.61-25.841-15.075-54.984-31.378-64.762-36.228-39.077-19.385-79.959-29.775-117.16-29.775-10.784 0-18.715-1.0763-18.715-2.5397 0-4.3669 45.36-2.7917 68.571 2.3813 29.466 6.5669 53.056 15.451 96.479 36.333 82.85 39.843 85.387 40.254 36.854 5.9691-23.521-16.616-65.2-38.622-96.508-50.957-9.7778-3.8522-18.349-7.6039-19.048-8.337-0.69842-0.73318 5.0406-0.62359 12.753 0.24356 18.357 2.0639 43.029 10.604 77.145 26.703 15.222 7.1833 28.361 13.06 29.198 13.06s-4.1886-4.097-11.168-9.1045c-35.391-25.391-84.415-41.73-152.36-50.78-24.254-3.2304-57.569-5.1939-162.55-9.58-27.768-1.1601-54.1-9.4834-100.32-31.71-41.272-19.848-60.753-26.27-82.54-27.208-9.7778-0.42116-14.616-0.20089-10.751 0.48922 11.021 1.968 5.4299 5.9886-8.3274 5.9886-12.881 0-25.366 4.0966-25.366 8.3229 0 1.3355 2.4239 1.7944 5.3865 1.0196 9.146-2.3918 60.933 2.9871 80.019 8.3111 21.148 5.8994 55.258 20.944 58.171 25.656 1.5082 2.4404 0.7889 2.7559-2.8416 1.2464-20.708-8.6097-58.488-19.868-77.931-23.223-27.531-4.751-60.264-3.0816-60.264 3.0734 0 5.3884 10.911 8.6094 29.164 8.6094 16.056 0 24.169 1.5885 24.169 4.7321 0 0.90694-8.9744 1.724-19.943 1.8156-22.272 0.18616-34.305 5.1505-40.881 16.866-3.2151 5.728-3.2553 8.5171-0.2896 20.089 1.8941 7.3904 3.3611 16.34 3.26 19.888l-0.18377 6.451 32.031-0.90718c37.68-1.0672 54.891 1.3646 115.9 16.376 74.022 18.212 93.487 20.19 165.34 16.805 114.27-5.3843 172.99 5.6482 255.08 47.926 80.52 41.466 138.11 89.054 178.78 147.74 8.4718 12.222 15.823 22.222 16.335 22.222s0.1169-2.5714-0.8798-5.7143zm-594.68-42.067c108.64-64.186 163.21-81.821 252.78-81.699 74.097 0.10108 136.07 13.117 210.03 44.114 19.056 7.9864 2.2106-2.4032-34.061-21.007-85.472-43.839-159.98-55.932-258-41.877-67.631 9.6975-130.97 32.801-180.78 65.942-47.872 31.853-67.995 62.658-38.332 58.679 5.9485-0.7979 24.57-10.098 48.359-24.153zm-82.433-8.5224c6.0196-2.8866 16.579-9.7021 23.465-15.145 30.613-24.199 85.262-53.079 128.58-67.954 93.561-32.125 210.76-32.766 314.47-1.721 2.7936 0.83629-3.2497-2.4822-13.43-7.3744-63.512-30.522-166.43-38.469-260.86-20.142-86.223 16.735-167.31 54.68-214.11 100.19-8.6511 8.4129-15.729 16.545-15.729 18.072 0 4.1826 24.619 0.30255 37.611-5.9277zm-34.812-15.992c28.6-20.758 54.566-37.692 73.463-47.909 61.291-33.139 138.86-56.923 213.24-65.381 32.583-3.7052 112.95-1.5895 138.43 3.6441 9.7778 2.0087 18.141 3.3088 18.585 2.8892 2.147-2.0294-42.328-16.886-65.766-21.968-23.016-4.991-33.926-5.7479-83.613-5.8006-52.791-0.0561-59.601 0.4674-89.417 6.8724-38.769 8.3281-52.842 8.5398-108.14 1.6265-58.355-7.2958-118.72-4.0273-127.81 6.92-4.732 5.7017-1.0546 6.7139 13.249 3.6464 9.1062-1.9529 14.138-2.0313 15.921-0.24813 1.7833 1.7834 0.40031 2.6074-4.376 2.6074-12 0-29.588 12.413-29.588 20.883 0 3.4865 12.378 2.1329 41.205-4.506 15.477-3.5643 31.109-6.127 34.737-5.6948 4.004 0.47691-3.3859 3.153-18.8 6.8081-13.968 3.3123-30.74 7.6082-37.271 9.5465-11.27 3.3448-11.772 3.8785-9.8765 10.49 2.6389 9.2014-0.41686 16.746-9.5032 23.464-9.0853 6.717-18.908 23.558-17.809 30.534 0.9242 5.8657-1.6654 7.3854 35.866-21.048 10.602-8.0317 19.891-14.603 20.643-14.603 0.75177 0 6.8126-3.3409 13.469-7.4243 20.32-12.466 59.086-25.747 59.086-20.242 0 1.2483-1.2577 2.2697-2.7949 2.2697-4.7395 0-64.627 29.439-76.321 37.518-6.0738 4.1959-15.881 12.534-21.794 18.529l-10.75 10.9 7.9916 3.8704c4.3954 2.1288 9.8046 7.0585 12.02 10.955 2.2158 3.8964 4.7168 7.0917 5.5579 7.1005 0.84104 8e-3 5.4125-2.8025 10.159-6.2473zm920.38-65.151c39.181-26.091 89.231-50.672 149.84-73.593 26.54-10.036 71.682-28.244 100.32-40.462 28.635-12.218 78.349-33.338 110.48-46.935 65.84-27.864 105.53-46.946 142.4-68.462 31.97-18.656 40.848-25.307 45.318-33.951 3.4756-6.7211 3.3772-6.9333-3.1773-6.8528-6.3922 0.0785-6.8345-0.7087-8.048-14.323-0.7063-7.9232-2.1366-15.258-3.1785-16.3-2.7825-2.7826-11.488 2.5411-40.584 24.819-65.179 49.906-75.047 57.073-95.62 69.447-12.031 7.2359-43.588 24.386-70.128 38.11-26.54 13.725-62.54 32.842-80 42.484-35.127 19.396-73.878 37.037-129.52 58.964-75.551 29.771-124.5 57.422-151.11 85.355-7.6722 8.0547-9.6827 11.088-5.0794 7.6626 4.1905-3.1179 21.333-14.801 38.095-25.963zm-114.46-107.63c8.7508-39.988 15.958-67.652 38.377-147.3 57.774-205.26 69.044-268.99 71.188-402.54 0.8124-50.621 2.6585-87.69 5.328-106.98 2.3608-17.062 3.2629-32.605 2.1373-36.825l-1.9476-7.3019-3.3529 7.908c-1.8442 4.3494-4.6235 27.207-6.1764 50.794-1.5529 23.587-4.5028 57.171-6.5553 74.632-2.0526 17.46-6.0134 52.317-8.8018 77.46-13.565 122.31-20.122 157.86-55.516 300.95-26.258 106.16-38.489 165.01-45.85 220.61-6.3062 47.636-6.36 62.08-0.096 25.736 2.528-14.667 7.5974-40.381 11.266-57.143zm294.71 38.149c112.12-44.314 206.83-64.748 336.52-72.61 48.269-2.9259 58.303-5.2854 63.461-14.922 3.7554-7.017 3.2242-15.918-1.3385-22.433-5.7132-8.1567-18.257-7.2791-46.551 3.2568-24.943 9.2882-29.457 10.383-27.104 6.5764 0.7819-1.2651 11.421-5.8456 23.642-10.179 38.496-13.65 50.266-22.495 52.849-39.714 0.8905-5.9383 0.8779-13.132-0.028-15.987-1.5227-4.7975-3.5441-3.9469-26.745 11.255-54.308 35.583-110.13 59.079-252.74 106.38-51.683 17.142-108.38 36.938-125.99 43.991-29.39 11.771-98.772 44.96-98.772 47.249 0 0.53669 13.973-5.2691 31.051-12.902 17.078-7.6327 49.364-21.115 71.746-29.962zm-172.64-11.916c21.068-14.877 48.304-30.475 99.048-56.723 82.554-42.702 107.26-57.198 135.87-79.706 14.965-11.773 40.444-37.147 49.442-49.238 3.9267-5.2761 7.6762-9.0562 8.3322-8.4002 3.5018 3.5018-32.693 45.677-55.2 64.321-23.392 19.377-80.138 53.829-139.19 84.508-5.9968 3.1154-10.388 6.1798-9.7578 6.8099 1.8075 1.8075 88.84-42.945 119.64-61.522 58.748-35.429 71.959-48.174 122.98-118.65 27.147-37.496 65.462-82.322 68.105-79.679 0.6498 0.64977-7.856 12.411-18.902 26.137-11.046 13.726-32.564 41.527-47.819 61.781-34.262 45.49-76.135 88.123-105.26 107.16-11.873 7.7634-38.73 23.542-59.683 35.064-20.952 11.522-50.667 27.905-66.032 36.406-38.92 21.534-96.098 57.556-91.361 57.556 1.1254 0 20.428-9.535 42.894-21.189 22.466-11.654 49.419-25.049 59.896-29.767 23.093-10.4 50.061-26.464 103.55-61.683 52.842-34.79 80.277-61.45 138.93-135.01 5.5585-6.9704 11.273-13.925 12.698-15.455 1.4257-1.53 11.735-12.857 22.91-25.171 21.198-23.36 52.539-50.186 71.861-61.51l11.294-6.6188-8.5619-4.4022c-4.709-2.4212-14.848-10.592-22.53-18.157-7.6826-7.565-17.259-15.908-21.28-18.54-7.2324-4.7335-7.3601-4.7264-11.714 0.65013-2.4209 2.9897-7.6672 13.218-11.658 22.729-24.092 57.412-49.273 85.701-143.56 161.27-59.991 48.081-99.656 75.778-163.54 114.19-81.067 48.745-110.86 71.979-133.61 104.2-4.6628 6.6039-2.1086 5.088 11.761-6.9802 9.7445-8.4789 23.432-19.451 30.416-24.383zm-334.35 10.138c-49.444-57.12-133.13-101.6-261.21-138.85-25.618-7.4495-183.82-50.483-194.28-52.846-2.7936-0.63136-1.0794 0.69857 3.8095 2.9554 13.095 6.0448 82.442 26.67 144.76 43.054 101.07 26.572 138.22 39.876 186.67 66.857 34.971 19.474 75.442 47.873 118.1 82.865 7.6825 6.3028 14.367 11.503 14.854 11.557 0.48741 0.0533-5.2269-6.9651-12.698-15.596zm-428.82 0.58487c6.2857-1.1185 8.8361-2.1766 5.6676-2.3514-6.807-0.37562-34.458-7.6457-62.842-16.523-51.69-16.165-61.256-17.815-104.1-17.952-43.617-0.13892-57.507 2.488-62.501 11.82-3.4744 6.4921 1.1611 16.333 8.9394 18.977 2.9192 0.99249 37.308 2.0707 76.419 2.396s80.825 1.641 92.698 2.9237c28.298 3.0572 32.177 3.1174 45.714 0.7086zm890.65-19.302c84.67-34.123 177.16-100.24 289.03-206.62 9.7778-9.2975 27.223-25.334 38.768-35.637 22.038-19.668 31.074-31.434 31.074-40.463 0-16.871-34.999 8.4066-68.107 49.189-16.332 20.117-14.061 17.448-35.978 42.289-52.702 59.735-138.56 123.02-246.39 181.6-18.857 10.245-33.493 18.632-32.523 18.638 0.9693 5e-3 11.826-4.0452 24.127-9.0025zm189.73-10.077c18.684-2.0866 72.228-4.3831 122.15-5.2392 48.889-0.83838 92.68-2.6782 97.312-4.0886 4.9923-1.5198 9.6106-5.1692 11.337-8.9589 7.1637-15.723-17.856-20.612-82.249-16.075-44.92 3.1654-85.897 9.4973-124.18 19.189-26.791 6.7824-63.953 18.534-65.987 20.866-0.7229 0.82906 0.8594 0.72305 3.5162-0.23568 2.6568-0.95863 19.8-3.4147 38.095-5.4579zm-545.47-19.64c-31.733-84.095-56.054-129.64-115.61-216.51-62.419-91.045-76.746-118.07-128.59-242.54-30.883-74.147-47.907-105.93-96.259-179.68-9.3857-14.317-18-26.032-19.143-26.032-3.6981 0-5.2162 7.8504-2.4997 12.926 1.4539 2.7166 14.715 23.289 29.47 45.717 31.936 48.544 49.557 84.633 85.967 176.07 30.343 76.196 43.877 106.49 59.622 133.45 13.324 22.814 11.867 26.33-1.8868 4.5525-17.192-27.221-30.02-55.005-58.036-125.7-31.128-78.545-38.569-94.841-58.017-127.06-15.876-26.302-60.083-89.535-66.069-94.502-3.2844-2.7258-3.8696-2.2993-3.8576 2.812 0.029 12.34 5.65 25.533 17.448 40.952 16.306 21.312 26.719 37.294 25.253 38.761-0.66184 0.66184-6.4868-6.5042-12.944-15.925-22.899-33.405-43.32-50.474-53.429-44.659-2.9182 1.679 2.0925 9.5834 23.501 37.074 26.477 33.998 47.349 66.647 50.22 78.553 0.77869 3.2293-6.4527-6.9321-16.07-22.581-9.617-15.649-23.771-35.721-31.454-44.605-16.43-19.001-36.436-36.047-37.734-32.153-2.2925 6.8775 6.2768 26.076 17.703 39.662 37.023 44.019 74.276 96.995 89.926 127.88 11.566 22.824 5.1953 16.18-12.644-13.186-28.668-47.193-82.341-118.06-98.459-129.99-6.7206-4.9777-7.0719-4.9915-12.063-0.47417-2.8277 2.559-5.1413 6.5405-5.1413 8.8476s9.7975 14.987 21.772 28.178c48.053 52.932 84.551 102.28 115.41 156.05 42.858 74.663 79.205 125.7 156.23 219.35 16.806 20.435 42.97 52.583 58.144 71.44 15.173 18.857 28.063 34.83 28.644 35.496 0.58072 0.6655-2.3634-6.411-6.5426-15.726-14.787-32.958-30.165-53.217-81.201-106.98-42.019-44.262-103.41-126.11-101.48-135.3 0.79891-3.8029 0.91778 1.197 7.875 11.046 40.461 57.279 66.841 83.817 100.69 117.49 20.355 20.254 41.133 41.968 46.174 48.254 24.289 30.288 46.964 67.979 72.192 120 9.3142 19.206 17.372 34.921 17.907 34.921s-1.723-7.1429-5.0173-15.873zm181.86-75.955c27.448-57.745 65.634-119.88 105.9-172.3 42.9-55.857 78.965-104.89 92.473-125.71 64.246-99.062 61.49-93.195 57.647-122.75-3.8336-29.481-14.834-75.593-20.902-87.621-3.7362-7.4054-8.0622-11.131-18.086-15.576-14.851-6.586-19.185-10.774-26.776-25.878-6.207-12.349-16.459-21.192-24.569-21.192-3.1566 0-13.288 2.3316-22.515 5.1814l-16.776 5.1814-0.034 36.088c-0.018 19.849-1.1362 60.757-2.4839 90.908-4.4011 98.461-16.159 138.93-72.988 251.21-26.101 51.571-46.439 94.748-46.358 98.416 0.023 1.0457 6.7077-10.67 14.854-26.035s20.258-37.079 26.914-48.254c39.181-65.781 64.914-124.28 74.853-170.16 9.7161-44.85 13.473-58.171 19.698-69.841l6.0962-11.429-1.3671 19.048c-3.3511 46.692-19.517 96.595-55.123 170.16-12.508 25.841-21.708 45.841-20.446 44.444 18.278-20.222 72.51-103.83 90.647-139.74 13.488-26.708 17.718-38.413 25.316-70.054 15.254-63.526 28.029-88.785 16.641-32.905-11.056 54.253-35.974 116.48-69.301 173.06-7.8824 13.383-27.881 44.811-44.442 69.841-16.56 25.03-33.243 50.652-37.072 56.937-3.829 6.2857-11.649 18.857-17.378 27.937-14.486 22.96-40.615 75.533-51.336 103.29-8.2093 21.256-21.818 68.45-21.742 75.398 0.018 1.5931 5.6056-10.924 12.418-27.817 6.8126-16.892 18.618-43.823 26.234-59.845zm73.805 69.497c7.2737-5.2981 37.225-24.891 66.558-43.54 100.64-63.982 140.07-92.257 200.05-143.44 42.93-36.638 69.106-66.087 89.754-100.98 20.118-33.992 23.848-42.594 23.848-54.992 0-14.422-10.378-23.29-27.256-23.29-3.6343 0-14-4.0631-23.034-9.0292-9.0345-4.966-17.842-8.4859-19.572-7.8219-1.7302 0.66395-9.477 13.584-17.215 28.712-7.738 15.128-21.311 37.791-30.162 50.362-20.813 29.56-77.911 86.884-134.19 134.72-43.825 37.251-104.13 94.011-104.13 98.011 0 1.1292 11.143-6.866 24.762-17.767 13.619-10.901 41.905-32.79 62.857-48.643 98.069-74.2 149.59-123.68 181.14-173.94 12.17-19.391 9.5804-7.6129-3.2939 14.978-16.721 29.342-29.526 45.55-58.617 74.195-24.196 23.826-44.075 39.613-124.31 98.724-31.364 23.107-54.287 41.791-69.841 56.926-6.2819 6.1125-7.0268 7.4791-2.5397 4.6596 3.4921-2.1943 21.206-12.918 39.365-23.83 113.73-68.346 163.58-103.1 206.47-143.95 11.593-11.041 21.733-19.419 22.534-18.618 2.616 2.616-27.851 35.115-51.231 54.648-21.997 18.377-79.496 57.524-121.9 82.995-32.708 19.645-72.224 46.58-92.311 62.92-30.311 24.657-66.093 62.703-58.973 62.703 6.3641-6.2439 12.441-8.347 21.234-14.712zm-404.07-13.161c-18.535-17.288-48.694-36.06-79.108-49.24-22.636-9.8095-30.876-10.795-12.411-1.4843 18.777 9.4675 68.547 39.612 87.23 52.833 9.7778 6.9191 18.349 12.639 19.048 12.711 0.69842 0.0719-5.9431-6.5969-14.759-14.819zm226.7-22.75c3.6579-18.763 11.697-74.192 17.866-123.17 6.1683-48.983 15.778-118.77 21.355-155.09 10.519-68.505 13.669-98.783 18.096-173.97 1.4393-24.444 3.6916-59.873 5.0052-78.73 2.7474-39.441 3.2777-119.43 0.9219-139.05-0.9958-8.2901-2.8286-13.333-4.8457-13.333-4.9719 0-5.782 4.7013-4.3758 25.397 1.7763 26.144-3.3989 141.06-9.6073 213.33-5.8815 68.467-12.591 129.25-30.274 274.29-11.158 91.512-22.902 195.99-22.902 203.74 0 7.9073 2.7547-2.5974 8.7621-33.413zm502.98 15.134c64.484-21.98 80.872-28.009 109.76-40.379 41.836-17.912 107.59-61.125 96.384-63.344-8.179-1.6196-15.682 1.6487-36.799 16.029-26.915 18.329-64.851 37.219-119.83 59.666-57.167 23.342-109.21 46.021-109.21 47.592 0 0.6768 2 0.44729 4.4445-0.51002 2.4444-0.95733 27.302-9.5317 55.238-19.054zm-335.58-50.428c17.595-20.711 52.346-55.589 125.83-126.29 78.676-75.698 113.24-118.19 140.85-173.17 14.023-27.921 14.445-31.123 4.1029-31.123-8.6562 0-14.736 8.1474-36.953 49.524-30.02 55.908-49.083 80.288-105.19 134.53-108.23 104.63-133.49 133.05-160.84 180.91-6.5477 11.459-11.905 21.662-11.905 22.674 0 1.0122 5.7144-6.4546 12.698-16.593 6.9842-10.138 21.117-28.342 31.405-40.452zm267.01 30.641c11.175-7.6353 31.175-22.309 44.444-32.609 44.826-34.793 89.292-66.975 88.26-63.877-0.5645 1.6936-18.082 16.046-38.929 31.894-65.228 49.588-68.357 52.152-65.01 53.268 4.3352 1.4451 69.651-36.158 97.789-56.298 46.174-33.05 88.338-68.347 93.328-78.127 5.6953-11.164 6.2071-19.678 1.5643-26.028-3.0395-4.1567-4.5173-3.235-17.778 11.088-7.9545 8.5918-14.463 13.91-14.463 11.817s1.2569-4.5812 2.7932-5.5307c3.3969-2.0994 22.604-31.489 22.604-34.588 0-4.9721-17.739 7.4481-36.825 25.783-54.184 52.052-150.55 135.43-198.1 171.39-12.572 9.5087-23.429 17.913-24.127 18.677-3.0104 3.2912 25.813-14.125 44.444-26.856zm-498.97-29.014c-4.4465-15.799-22.794-72.726-40.773-126.5-17.979-53.778-36.109-109.78-40.289-124.44-25.966-91.107-36.383-177.37-27.969-231.6 3.3182-21.386 1.3282-26.741-12.913-34.745-20.903-11.748-24.056-5.3978-21.906 44.121 1.7288 39.824 6.281 72.96 15.7 114.29 8.7067 38.199 24.905 90.574 23.09 88.936-2.7914-2.5192-34.68-113.51-40.06-142.27-3.2813-17.541-5.9223-45.892-7.0972-76.19l-1.8713-48.254-9.898-19.683c-5.4439-10.825-10.653-19.683-11.575-19.683-0.92249 0-2.4698 14-3.4384 31.111-1.8817 33.242 1.4443 90.52 7.7056 132.7 3.5863 24.159 14.984 78.691 18.198 87.065 0.91647 2.3883 0.45453 3.2765-1.179 2.2669-13.199-8.1575-35.954-184.38-31.82-246.43 1.4176-21.277 0.0102-24.375-11.119-24.455-4.0256-0.029-5.8001 1.9777-6.9841 7.8976-2.9494 14.747-1.4547 104.87 2.2483 135.56 4.4457 36.846 4.3685 46.464-0.19352 24.127-6.4636-31.646-11.603-85.415-12.739-133.28-1.2756-53.721-1.7206-55.097-17.986-55.613l-9.7422-0.30905-0.81786 30.476c-1.6143 60.157 7.3386 128.62 24.685 188.78 21.872 75.845 55.958 146.95 115.96 241.88 13.619 21.549 32.842 51.972 42.717 67.607 9.8752 15.635 18.349 28.033 18.83 27.552 0.48155-0.48153-7.9235-20.131-18.678-43.665-21.891-47.906-32.461-74.508-30.417-76.552 1.815-1.815 0.76463-3.4621 19.91 31.223 26.466 47.947 66.461 140.66 74.277 172.18 0.9686 3.9063 2.3163 6.5471 2.995 5.8684 0.6788-0.6787-2.404-14.161-6.8505-29.96zm126.49-126.5c16.462-62.802 29.166-126.81 35.786-180.32 26.548-214.55 33.74-294.33 28.331-314.26-4.9486-18.24-18.806-28.595-38.263-28.595-8.8087 0-10.067 0.83223-12.481 8.254-1.5504 4.7678-2.582 29.171-2.4425 57.778 0.4141 84.877-8.5815 233.32-17.006 280.63-18.3 102.77-24.116 147.47-23.793 182.86 0.1856 20.303 1.9987 15.561 17.682-46.243 15.654-61.689 28.652-127.68 35.415-179.79 7.6719-59.116 10.22-71.845 8.6413-43.175-3.0082 54.649-12.138 110.35-37.672 229.84-17.316 81.035-26.884 132.24-30.609 163.81-1.4111 11.959 5.4755-12.78 36.41-130.79zm-711.96 131.07c-29.407-10.751-54.809-23.671-105.36-53.589-41.77-24.722-74.069-41.928-78.706-41.928-1.4317 0-2.6031 2.198-2.6031 4.8845 0 6.0102 11.831 20.512 16.734 20.512 1.9711 0 3.5838 1.1429 3.5838 2.5397 0 1.3968-2.4814 2.5397-5.5143 2.5397-5.9635 0-14.806 6.6842-14.799 11.187 3e-3 1.7531 7.9305 2.9767 21.449 3.3105 32.361 0.79911 48.098 5.2218 100.45 28.23 38.142 16.763 75.568 30.669 82.54 30.669 2.7936 0-5.2064-3.7604-17.778-8.3564zm573.83-114.65c-30.346-120.43-41.201-168.64-50.648-224.95-3.6067-21.499-9.443-52.803-12.97-69.565-3.5267-16.762-7.3765-42.33-8.5552-56.817-2.319-28.504-6.2567-37.093-14.594-31.834-6.9449 4.3808-8.7236 15.405-8.9763 55.636-0.19378 30.845 1.0931 45.829 6.7615 78.73 13.934 80.879 33.248 145.04 81.034 269.21 16.127 41.905 30.165 79.61 31.196 83.79 1.0302 4.1798 2.2637 6.4278 2.7411 4.9956 0.4774-1.4322-11.218-50.566-25.989-109.19zm541.09 76.74c29.412-24.607 79.589-75.336 95.919-96.974 21.503-28.492 26.881-33.92 40.496-40.867 22.04-11.246 35.949-27.497 27.829-32.516-3.0633-1.8933-29.173 15.787-51.686 34.999-21.189 18.082-52.077 51.746-84.156 91.717-11.21 13.968-28.462 34.54-38.339 45.714-19.084 21.593-18.107 21.389 9.9377-2.0737zm-301.58-11.895c21.822-29.248 37.24-46.731 90.71-102.86 59.41-62.361 73.076-77.834 97.579-110.48 29.947-39.893 60.868-93.968 53.733-93.968-3.7262 0-25.618 29.307-57.888 77.496-31.536 47.093-51.428 69.228-92.082 102.47-40.067 32.758-65.009 60.699-84.591 94.763-8.1706 14.213-30.932 62.861-27.718 59.243 1.2408-1.3968 10.356-13.397 20.257-26.667zm-833.79 23.078c-8.5912-8.256-123.05-73.679-123.05-70.334 0 1.6879 47.871 35.387 66.032 46.483 13.739 8.3943 31.758 16.638 53.333 24.398 5.7504 2.0685 6.3169 1.9843 3.6825-0.54725zm910.52-33.365c0.7446-0.76894 23.068-20.734 49.608-44.368 98.512-87.724 147.05-142.48 183.6-207.12l8.0044-14.156-8.1844 0.05c-4.5015 0.0274-10.025-0.80635-12.275-1.853-3.0989-1.4417-5.1832 0.4388-8.5973 7.7566-10.274 22.021-48.247 81.699-57.051 89.66-0.7724 0.69842-7.6408 8.6984-15.263 17.778-7.6223 9.0794-46.505 49.651-86.406 90.159-39.901 40.508-76.422 78.794-81.158 85.079-7.9558 10.559-7.2802 10.172 8.8772-5.0794 9.6186-9.0794 18.098-17.137 18.842-17.906zm-277.37-11.34c-3.0843-22.113-3.8264-146.56-1.8854-316.15 1.2879-112.53-0.1065-133.48-10.489-157.62-2.9679-6.899-6.291-12.544-7.3848-12.544-1.0937 0-2.7902 5.8288-3.7701 12.953-1.2394 9.0117-3.6302 14.56-7.8573 18.236-4.2366 3.6836-6.1032 8.0274-6.1659 14.349 3.5249 15.654 10.475 58.526 13.234 77.165 3.1376 21.198-13.667-62.475-15.415-65.994-3.1816-5.7431-4.8366-14.087-6.37-9.5288-0.90362 2.686-6.7576 8.7314-13.009 13.434-6.5333 4.9149-11.366 10.62-11.366 13.418 0 2.677 2.9696 10.728 6.5992 17.89 8.7274 17.223 17.602 52.955 23.748 95.612 5.3646 37.237 6.8381 51.012 16.751 156.59 3.5411 37.714 8.6912 81.917 11.445 98.229 5.5209 32.705 12.73 66.265 13.968 65.027 0.4372-0.43721-0.4779-9.92-2.0335-21.073zm39.999-145.99c18.882-200.35 21.63-239.98 23.332-336.51 1.5258-86.528-0.091-108.91-8.3624-115.78-3.0748-2.5519-4.619-2.3278-8.1144 1.1773-6.0427 6.0594-5.5893 47.848 0.8991 82.854 4.1982 22.651 4.9398 38.141 4.9237 102.86-0.018 76.823-1.1445 93.551-14.012 208.25-10.037 89.469-12.902 125.9-13.782 175.24-0.4984 27.937-0.398 45.651 0.2233 39.365 0.6212-6.2857 7.3229-77.143 14.892-157.46zm233.65 108.06c49.624-45.955 95.294-93.587 118.78-123.88 35.751-46.115 70.506-106.85 64.55-112.81-2.7382-2.7381-6.2624 1.7669-19.607 25.064-32.83 57.314-70.19 103.05-144.77 177.21-33.773 33.586-61.977 63.948-68.415 73.651l-10.954 16.508 8.6203-7.8813c4.7412-4.3347 28.049-25.873 51.795-47.864zm-367.3 30.983c-5.7921-11.524-24.294-44.952-41.116-74.286-81.227-141.64-100.29-181.48-121.54-253.97-16.404-55.963-22.427-96.982-24.554-167.21-1.6434-54.268-1.8088-55.568-7.6752-60.317-13.514-10.941-14.407-7.8616-10.747 37.051 1.0245 12.571 0.99743 25.143-0.0602 27.937-1.7321 4.5752-1.9474 4.4492-2.1694-1.2698-0.84689-21.813-5.3597-59.129-7.6736-63.453-3.263-6.097-11.545-6.7618-13.717-1.1011-2.6966 7.0271-1.665 30.62 2.1271 48.646 4.7876 22.76 9.5986 36.912 23.408 68.858 6.2489 14.456 10.729 26.916 9.9552 27.69-4.1317 4.1317-39.767-86.58-45.827-116.65-0.75431-3.7436-3.1657-8.6007-5.3586-10.794-5.1598-5.1598-18.55-5.2159-20.519-0.08594-2.4822 6.4686 8.4208 32.802 35.188 84.988 28.603 55.764 42.138 87.348 43.982 102.63 1.025 8.4953 0.0178 6.9175-5.5314-8.6596-8.5358-23.964-70.661-146.44-78.895-155.54-6.1744-6.8226-13.405-5.7472-13.405 1.9938 0 8.0287 6.2431 20.384 24.292 48.073 16.633 25.518 48.872 91.214 76.061 155 26.319 61.745 80.984 171.7 101.64 204.44 9.2516 14.667 31.421 46.095 49.265 69.841s34.458 46.317 36.919 50.159c8.2244 12.837 6.5881 7.1859-4.0444-13.968zm-625.72-26.374c-7.4956-5.8885-60.284-31.649-61.783-30.149-1.976 1.976-1.2737 2.3775 32.577 18.627 34.59 16.604 36.769 17.464 29.206 11.523zm766.92-40.293c2.0884-15.365 5.5097-55.937 7.6029-90.159 2.1402-34.99 7.1969-85.564 11.554-115.56 5.4117-37.25 8.4884-71.157 10.203-112.44 1.35-32.507 3.5857-74.793 4.9684-93.968 4.5592-63.227 2.5087-99.913-5.9776-106.95-2.1515-1.7842-2.9365 16.574-3.0646 71.669-0.1851 79.678-1.1647 94.623-16.339 249.31-11.201 114.18-14.389 154.25-16.362 205.71-1.5579 40.624 1.2509 37.738 7.4158-7.619zm-25.43-44.443c2.1397-21.652 6.1742-74.795 8.9656-118.1 2.7913-43.302 6.2178-91.302 7.6143-106.67 8.9902-98.916 4.4318-174.27-12.992-214.77-5.2823-12.279-10.539-15.913-13.156-9.0947-1.2823 3.3417 2.6978 29.395 8.0113 52.441 12.437 53.943 15.219 179.21 5.8664 264.13-10.18 92.43-12.907 124.88-14.187 168.89l-1.2558 43.175 3.6213-20.316c1.9918-11.174 5.372-38.031 7.5117-59.683zm-775.78 54.564c0-1.6867-15.844-11.369-18.624-11.382-1.164-5e-3 -1.6665 1.3403-1.1165 2.9901 0.77989 2.3397 9.0046 6.4316 19.106 9.5056 0.34921 0.10616 0.63492-0.395 0.63492-1.114zm187.72-14.949c-0.58202-0.55989-10.772-2.832-22.646-5.0491-24.853-4.641-54.985-14.087-78.73-24.682-12.405-5.5351-14.93-6.1144-10.159-2.3311 12.207 9.6791 40.612 23.146 58.96 27.953 15.676 4.107 55.835 7.2455 52.574 4.1088zm866.95-45.054c38.405-35.543 69.848-73.592 107.79-130.44 8.3913-12.571 19.396-27.803 24.456-33.847 9.1083-10.882 9.1588-11.07 5.1032-19.048-2.2528-4.4315-4.4919-8.5032-4.9756-9.0482-2.1362-2.4066-19.794 20.973-34.316 45.435-21.946 36.968-29.724 46.982-68.051 87.619-37.432 39.688-57.741 64.555-69.04 84.535l-7.5913 13.424 10.897-7.827c5.9932-4.3049 22.07-18.168 35.727-30.807zm-809.59 31.208 12.698-1.7207-7.619-4.7559c-58.486-36.508-102.28-75.383-125.43-111.36-6.0696-9.4286-12.174-17.143-13.565-17.143-1.5536 0-1.8778 4.3476-0.84011 11.267l1.6897 11.267-9.6342 0.79607c-16.326 1.349-13.803 7.6581 7.8076 19.518 10.456 5.7385 19.771 11.664 20.7 13.167 3.3691 5.4512-1.1026 5.1526-13.17-0.87962-6.7738-3.3862-15.183-6.844-18.686-7.6841-7.3669-1.7665-15.27 1.9347-11.386 5.3326 10.532 9.2151 48.706 36.396 62.156 44.255 18.386 10.744 16.229 12.185-6.6661 4.4534-9.6865-3.2712-20.796-9.8057-30.224-17.778-16.516-13.965-21.835-15.309-27.661-6.9922-2.1624 3.0873-6.3943 6.9312-9.4043 8.5421-5.1868 2.7759-4.6716 3.4728 9.8653 13.345 43.271 29.385 105.73 43.636 159.37 36.366zm679.33-68.945c23.944-76.414 29.138-109.54 27.872-177.78-2.6414-142.36-1.5024-166.51 9.1415-193.84 1.5602-4.0057 0.643-4.5201-6.7936-3.8095-7.3522 0.70248-9.0313 2.1511-11.594 10.003-5.9698 18.289-8.4316 59.519-8.4316 141.21 0 108.52-5.9001 162.09-29.236 265.47-3.4758 15.397-6.264 28.699-6.1961 29.559 0.2433 3.0792 15.474-39.659 25.238-70.818zm-646.44 51.234c-1.327-1.1548-20.698-14.203-43.048-28.997-45.626-30.201-74.675-55.527-89.981-78.447-11.793-17.661-13.642-17.722-3.4787-0.11504 23.802 41.233 52.358 66.499 108.7 96.173 23.545 12.401 33.802 16.601 27.81 11.386zm143.62-1.4421c0-0.55114-20.765-20.265-46.145-43.81-69.1-64.103-122.78-124.17-158.91-177.82-6.7854-10.076 6.206 16.72 16.82 34.693 24.861 42.098 66.563 88.337 117.36 130.13 13.138 10.81 34.174 28.164 46.745 38.565 23.576 19.506 24.127 19.922 24.127 18.24zm9.938-32.532c-4.6487-6.0009-21.107-25.196-36.574-42.657-37.449-42.274-41.582-47.571-76.312-97.778-39.497-57.098-79.988-109.57-79.872-103.5 0.0203 1.0516 5.545 13.341 12.278 27.309 18.499 38.381 39.988 70.502 74.758 111.75 15.988 18.965 111.65 117.25 113.23 116.34 0.51762-0.29991-2.8624-5.4551-7.511-11.456zm-111.53-13.893c-26.739-22.488-92.853-91.142-110.24-114.48-9.6282-12.921-18.014-23.492-18.635-23.492-1.5481 0 10.396 20.456 24.467 41.905 16.058 24.477 62.65 70.673 91.712 90.933 13.27 9.2508 24.698 16.833 25.397 16.85 0.69841 0.0178-5.0159-5.2562-12.698-11.717zm-107.2-19.24c-24.104-23.664-44.869-49.775-60.086-75.556-8.9556-15.173-8.4527-9.1576 1.0019 11.983 12.059 26.965 32.606 51.091 62.142 72.966 10.469 7.754 19.448 14.098 19.953 14.098s-9.8503-10.571-23.011-23.492zm558.09-79.365c8.7486-105.1 5.3427-196.46-9.3537-250.93l-5.4292-20.121-3.4156 9.8109c-4.575 13.141-4.3646 19.555 1.3784 42.01 9.2934 36.337 11.048 72.469 9.6596 198.91-0.7235 65.889-0.4077 109.12 0.705 96.508 1.1087-12.571 4.0137-46.857 6.4555-76.19zm199.53 54.603c15.274-46.807 17.519-68.484 19.961-192.71 1.2186-61.993 1.6154-114.28 0.8817-116.19-2.5445-6.6309-5.5654-3.4213-6.8873 7.3174-0.7308 5.9365-1.88 54.222-2.5537 107.3-0.8015 63.146-2.5807 108.13-5.1467 130.12-3.9321 33.706-11.306 71.903-16.462 85.279-3.4132 8.8538-3.489 11.86-0.1719 6.8188 1.3785-2.0952 6.0493-14.667 10.379-27.937zm-646.44 26.032c-32.899-32.212-86.653-94.286-108.71-125.53-8.6218-12.216-16.127-21.76-16.677-21.209-1.6329 1.6329 14.358 31.742 26.918 50.685 13.363 20.154 45.306 53.299 76.709 79.598 11.873 9.9431 22.063 18.143 22.646 18.222 0.58199 0.079 0.18286-0.71365-0.88721-1.7613zm-77.868-21.587c-15.188-18.031-22.901-28.124-56.706-74.202-9.189-12.525-16.707-21.636-16.707-20.247 0 4.9048 20.679 42.88 31.631 58.089 11.308 15.703 31.11 35.877 47.099 47.985 4.8889 3.7023 9.1824 6.7441 9.5412 6.7596 0.35878 0.0152-6.3272-8.2576-14.858-18.385zm-41.848-16.017c-9.0145-11.952-23.386-32.238-31.936-45.079-19.376-29.102-21.437-31.298-15.953-16.999 6.7142 17.504 25.525 48.211 37.403 61.059 9.3484 10.111 23.846 22.75 26.097 22.75 0.42801 0-6.5973-9.779-15.612-21.731zm907.11-9.4169c25.527-30.38 69.842-98.96 66.261-102.54-2.0711-2.0711-12.049 4.058-18.618 11.436-3.2797 3.6837-13.02 18.698-21.646 33.364-8.6253 14.667-22.13 36.381-30.011 48.254-7.8806 11.873-17.044 26.159-20.363 31.746l-6.0346 10.159 5.8539-5.0794c3.2196-2.7936 14.27-15.096 24.557-27.338zm-774.78 11.819c-8.428-8.428-34.379-44.172-59.722-82.258-32.772-49.251-56.135-81.896-57.578-80.453-2.1382 2.1382 18.598 46.358 29.987 63.946 6.3314 9.7778 18.374 26.349 26.762 36.825 18.975 23.7 58.825 66.032 62.16 66.032 1.3654 0 0.6414-1.8411-1.6088-4.0913zm62.904-5.4325c-2.6117-7.1752-14.392-23.808-60.706-85.714-44.38-59.32-84.306-105.57-75.635-87.619 10.31 21.348 45.435 73.061 73.376 108.03 20.803 26.034 60.64 69.75 63.562 69.75 0.56145 0 0.29283-2-0.5969-4.4444zm561.86-21.095c9.3951-44.042 11.584-72.826 13.602-178.87 1.1164-58.648 1.5026-108.65 0.8584-111.11-0.6441-2.4634-2.1406-4.4789-3.3253-4.4789-3.5161 0-6.5618 7.6897-11.568 29.206-4.1807 17.969-4.5999 28.537-3.627 91.429 1.7063 110.29 1.5951 158.47-0.4094 177.5-2.3156 21.994-0.7291 20.687 4.4688-3.6792zm-593.26-65.254c-7.3242-12.343-17.724-25.89-35.581-46.349-7.9248-9.0794-21.336-26.324-29.803-38.321-21.974-31.136-38.585-44.564-38.585-31.193 0 4.8764 11.86 21.748 25.657 36.498 10.932 11.687 51.072 55.172 70.915 76.825 6.0804 6.6349 11.504 12.063 12.052 12.063 0.54812 0-1.5465-4.2857-4.6547-9.5238zm644.88-146.67c2.0479-40.559 1.856-49.165-1.2033-53.968-9.068-14.237-12.358-2.9392-12.389 42.54-0.013 18.857 1.657 48.571 3.7102 66.032l3.7331 31.746 1.8561-19.048c1.0209-10.476 2.9525-40.762 4.2925-67.302z"
     stroke-width="2.5397"
     id="path22" />
</svg>
