<svg xmlns="http://www.w3.org/2000/svg" viewBox="0 0 2032 2032">
  <path d="M975 2019c-3-2-4-6-4-14 1-18 0-19-14-33-18-17-18-24-1-35 7-5 12-11 13-16 2-9 7-115 5-119l-1-216c1-161 2-226 5-264 10-129 3-188-26-248-24-47-69-88-127-114a396 396 0 00-234-43c-50 7-90 23-161 62-37 21-84 43-98 48-12 3-28 4-38 1-4-1-8-6-13-16-6-12-10-16-17-19-9-4-10-4-23 1-21 9-22 8-22-17 0-27-6-31-27-20-13 6-18 5-18-7 0-13 4-20 20-40 15-19 18-28 9-31-5-1-5-2-4-22l1-21-8-4c-11-6-13-15-9-32 6-28 6-30-2-47-5-8-8-16-8-19s4-9 9-15c7-9 8-13 6-15l-6-4c-6 0-5-4 3-13s6-14-6-19c-11-4-11-9 0-22 10-12 11-18 4-29-7-10-6-18 2-25 5-5 8-10 9-17 3-14 10-23 32-40 14-11 19-17 23-26 6-15 10-17 20-11 10 5 13 4 15-9 2-16 5-19 19-15 10 3 13 3 16 0 4-4 2-8-5-12s-8-10-2-19c4-5 6-11 6-19 0-25 13-61 30-82 6-8 15-14 33-23 30-15 33-19 58-69 26-51 37-62 65-68 14-3 19-8 21-23 3-14 5-16 22-19 16-2 17-3 20-12l4-15c2-10 10-16 28-22 8-2 19-7 23-11l18-12c6-2 16-8 23-14 17-15 25-14 41 2 11 12 11 12 24 10 13-1 14-1 27 9 10 8 16 11 22 10l11 1c4 0 12 18 16 35 6 27 16 39 33 39 10 0 17 6 24 17 4 7 8 11 16 13 22 9 27 18 31 65 2 22 7 45 13 65a411 411 0 0126 129c1 6 1 6 3-2 7-26-10-136-28-186-22-64-23-68-6-72l13-3c2 0 6-7 9-14 4-11 8-15 15-18 9-5 13-12 13-26 0-11 5-21 11-23 8-2 10-10 7-27-6-31 0-40 24-40 11 0 22-7 22-14 0-6 10-14 18-14 6 0 11 3 21 13 15 14 21 15 37 7 20-10 33-4 51 20 15 21 22 26 35 26 18 0 27 4 43 18l14 13h31c23 0 34 1 39 3 9 5 17 17 19 29 3 11 10 16 24 16 18 0 23 12 32 76 6 50 6 49 13 51l16 4c11 1 16 9 21 30 7 26 13 32 32 31 7-1 11 1 18 8 9 8 10 9 21 7 11-1 12-1 20 9 14 15 22 18 37 19 17 0 22 3 36 27l14 20c7 8 36 25 46 27s13 7 9 16c-2 5-2 7 2 12 6 8 6 10 1 18-4 7-2 11 9 12 6 1 7 2 8 15 0 8 3 17 5 19 7 8 13 21 11 24-1 2 1 5 5 6 3 2 7 7 10 13 2 5 7 10 11 12 5 2 6 3 6 10-1 9-1 9 21 14 8 1 9 5 3 16-3 6-3 9 0 22 4 16 3 22-4 37-2 6-2 9 1 17 6 15 5 20-5 31-9 10-11 14-13 30-4 22-13 32-35 41-20 8-73 10-125 4-71-8-140-4-196 9a544 544 0 00-308 211c-28 47-43 111-51 217-4 54-5 578-1 636 4 69-1 95-23 110-9 6-26 7-34 3zm24-40c5-10 10-35 10-47 0-5-1-7-2-4l-11 25c-7 16-10 24-8 29 2 9 5 8 11-3zm14-660c1-56 15-209 16-221 1-29-18 138-22 197-4 61-7 304-4 400l2 79 2-177zm-50-294a403 403 0 00-146-144 13571 13571 0 01-130-75c-39-20-80-30-117-30-11 0-19-1-19-2 0-5 46-3 69 2 29 7 53 15 96 36 83 41 86 42 37 6a536 536 0 00-115-59h12c19 2 43 11 78 27l29 13-11-9c-36-26-85-42-153-51-24-3-57-5-162-10-28-1-54-9-101-31-41-20-60-26-82-27h-11c11 2 6 6-8 6-13 0-26 4-26 8a323 323 0 0185 9c22 7 56 22 59 26 1 3 1 3-3 2-21-9-58-20-78-24-27-4-60-3-60 3s11 9 29 9c16 0 24 2 24 5 0 1-9 2-20 2-22 0-34 5-41 16-3 6-3 9 0 21 2 7 4 16 3 19v7l32-1c38-1 55 1 116 16 74 19 94 21 166 17 114-5 173 6 255 48a469 469 0 01194 171zm-595-43c109-64 163-82 253-81 74 0 136 13 210 45 19 8 2-3-34-21-85-45-159-57-257-43-68 10-132 33-182 66-48 32-68 62-38 58 6 0 24-10 48-24zm-82-8l23-15c31-25 85-53 130-68 93-32 211-33 314-2a454 454 0 00-274-28c-86 17-168 55-215 101-9 8-16 16-16 18 0 4 25 0 38-6zm-35-16a609 609 0 01288-113 701 701 0 01157 6 286 286 0 00-150-28c-53 0-59 1-89 7-39 8-53 9-108 2-59-8-119-4-128 7-5 5-1 6 13 3 9-2 14-2 16 0s0 3-4 3c-12 0-30 12-30 21 0 3 12 2 41-5 16-4 31-6 35-6 4 1-3 4-19 7l-37 10c-11 3-12 4-10 10 3 9-1 17-10 24-9 6-19 23-18 30 1 6-2 8 36-21a211 211 0 0135-22c20-12 59-26 59-20a573 573 0 00-80 40l-22 18-11 11 8 4c5 2 10 7 12 11s5 7 6 7zm921-64c39-26 90-51 150-74a3148 3148 0 00211-86c66-28 105-47 142-69 32-18 41-25 46-34 3-7 3-7-4-7-6 0-6 0-8-14 0-8-2-15-3-16-3-3-11 2-40 25a969 969 0 01-246 149c-35 19-74 37-130 59-75 29-124 57-152 85-7 8-9 11-5 8 4-4 22-15 39-26zm-114-108c9-40 16-68 38-147 58-206 69-269 71-403a1068 1068 0 019-144l-2-7-3 8c-2 4-5 27-7 51a1804 1804 0 01-16 152c-14 122-20 158-55 301-27 106-39 165-46 220-7 48-7 62 0 26zm295 38c112-43 206-64 336-71 48-3 58-6 64-15 3-7 3-16-2-23-6-8-18-7-46 3-25 10-30 11-27 7 0-1 11-6 23-10 39-14 50-23 53-40v-16c-2-5-4-4-27 11-54 36-110 59-252 107a997 997 0 00-225 91l31-14zm-173-12c21-15 48-30 99-57 83-42 107-57 136-79a366 366 0 0058-57c3 4-33 46-56 63a973 973 0 01-149 92c2 2 89-43 120-62 59-34 72-47 123-117 27-38 66-83 68-80 1 1-8 12-19 26l-48 62c-34 45-76 87-105 106l-59 35-67 36c-38 22-96 58-91 58a1662 1662 0 01103-51c23-10 50-26 103-62a524 524 0 00152-149l23-25c21-24 53-50 72-62l11-6-8-5c-5-2-15-10-23-18-8-7-17-16-21-18-7-5-8-5-12 0-2 3-8 13-12 23-24 57-49 86-143 160-60 48-100 76-164 114-81 49-111 72-133 105a483 483 0 0142-31zm-334 10c-50-57-134-102-262-139a14485 14485 0 00-190-50c13 6 82 26 145 43 101 26 138 40 186 67a833 833 0 01133 95zm-429 0c6-1 9-2 5-2-6-1-34-8-62-17-52-16-62-18-105-18s-57 3-62 12c-4 6 1 16 9 19 3 1 37 2 76 2s81 2 93 3c28 3 32 3 46 1zm890-18c85-34 178-100 289-206l39-36c22-19 31-31 31-40 0-17-35 8-68 49-16 20-14 18-36 42a924 924 0 01-246 181l-33 19zm190-9c19-3 72-5 122-6 49-1 93-2 98-4 5-1 9-5 11-9 7-15-18-20-82-16a706 706 0 00-187 40zm-545-21c-32-84-56-130-116-217-62-92-77-119-129-243a891 891 0 00-114-206c-4 0-5 8-2 13l29 46c32 48 49 84 85 176 30 76 44 106 60 133 13 23 11 27-2 5-17-27-30-55-58-126a708 708 0 00-123-221c-4-3-4-3-4 2 0 13 5 26 17 41 16 22 27 38 25 39l-13-16c-22-33-43-50-53-44-3 1 2 9 24 37 26 34 46 66 49 78 1 3-7-7-16-22-9-16-23-36-31-45-16-19-36-36-37-32-3 7 6 26 17 40 36 44 74 97 89 127 12 23 5 17-12-13-29-47-82-118-98-130-7-5-7-5-12 0-3 2-5 6-5 9s10 15 22 28c47 53 83 102 114 156 43 74 79 126 156 220a10484 10484 0 0187 107l-6-16c-15-33-31-53-82-107a639 639 0 01-101-136c1-4 1 1 8 11 40 57 67 85 100 119 21 20 42 42 47 48 24 30 47 68 72 120l18 35zm182-76c27-58 65-120 105-172 43-56 79-105 93-126 64-99 61-93 58-123-4-29-14-75-20-87-4-8-8-12-18-16-15-7-20-11-27-26-6-12-17-21-25-21l-22 5-17 5v36l-4 91c-4 99-16 139-73 252-26 51-46 94-46 98l15-26 27-48c39-66 65-125 75-171 9-44 13-58 19-69l6-12-1 19c-3 47-19 97-55 170-13 26-22 46-20 45 18-20 72-104 90-140 14-27 18-38 25-70 16-63 30-89 17-33-11 54-36 117-69 173a2100 2100 0 01-82 127l-17 28a502 502 0 00-73 179l12-28zm73 69l67-43c101-64 140-92 200-143 43-36 69-66 90-100 20-34 24-43 24-55 0-15-11-24-28-24-3 0-14-4-23-9s-18-8-19-8c-2 1-10 14-18 29-7 15-21 38-30 50-21 30-78 86-134 134-44 37-104 94-104 98l25-18 63-48c98-74 149-123 181-173 12-20 9-8-4 15-16 29-29 45-58 74-24 23-44 39-124 98a696 696 0 00-73 61l39-24a1123 1123 0 00229-161c3 3-27 35-51 55-22 17-79 56-122 82-32 19-72 46-92 62-30 25-66 63-59 63 6-6 13-8 21-15zm-404-13c-18-17-48-37-79-50-22-10-31-11-12-1a1064 1064 0 01106 66zm227-22c4-19 12-75 18-124l21-155c11-68 14-98 18-174l6-78c3-40 4-120 1-139-1-9-3-14-5-14-5 0-5 5-4 26 2 26-3 141-11 213-6 68-12 129-30 274l-23 204c0 8 3-3 9-33zm503 16c64-22 81-28 110-41 42-18 107-61 96-63-8-2-16 2-37 16-27 18-65 37-120 60a1400 1400 0 00-104 47zm-336-52c18-20 53-55 126-126 79-76 113-118 141-172 14-28 14-31 4-31-9 0-15 8-37 48-30 56-49 80-105 135a788 788 0 00-173 203l13-16zm267 32c12-8 32-22 45-33 45-34 89-67 88-64l-39 32c-65 50-68 52-65 54a675 675 0 00191-135c6-11 6-20 2-26-3-4-5-3-18 11-8 9-14 14-14 12l2-5c4-3 23-32 23-35 0-5-18 7-37 26a2917 2917 0 01-222 189c-3 3 26-13 44-26zm-499-30l-40-127-41-124c-26-91-36-177-27-232 4-21 2-26-13-34-20-12-24-6-21 44 0 40 5 73 14 114 9 38 25 91 23 89-2-3-34-114-40-142-3-18-6-46-6-77l-2-48-10-19-11-20c-1 0-3 14-4 31a773 773 0 0024 222c-13-8-35-185-31-246 2-22 0-25-11-26-4 0-6 2-7 8a1063 1063 0 001 160c-6-32-10-86-11-134-2-53-2-55-18-55h-10l-1 30c-2 60 6 129 24 189 22 76 56 148 116 243a344831 344831 0 0161 95c1-1-8-20-19-44-21-48-32-74-30-76s1-4 20 31a1097 1097 0 0177 178c1-1-2-14-7-30zm127-127c16-62 29-126 36-180 27-214 34-294 29-314-5-18-19-29-38-29-9 0-10 1-13 8l-2 58c0 85-10 234-18 281-19 103-24 147-24 183 0 20 2 15 18-47 15-61 28-127 35-179 8-59 10-72 9-43-3 54-12 110-38 229-17 81-27 133-31 164-1 12 6-13 37-131zM380 701c-29-10-55-23-105-53-42-25-75-42-79-42-2 0-3 2-3 5 0 6 12 20 17 20 2 0 4 1 4 3l-6 2c-6 0-15 7-15 12 0 1 8 3 22 3 32 1 48 5 100 28 38 17 76 31 83 31zm574-113a2678 2678 0 01-72-352c-2-28-6-37-14-31-7 4-9 15-10 55 0 31 1 46 7 79 14 81 33 145 81 269a2393 2393 0 0134 89c0-1-11-51-26-109zm541 78c29-25 79-76 96-97 21-29 27-34 40-41 22-12 36-28 28-33-3-2-29 16-52 35-21 18-52 52-84 92l-38 46c-19 21-18 21 10-2zm-302-13c22-30 37-47 91-103 59-63 73-78 98-111 29-40 60-93 53-94-3 0-25 30-58 78-31 47-51 69-92 102a334 334 0 00-112 154zm-834 22c-8-9-123-74-123-71 0 2 48 36 66 47a278 278 0 0057 24zm911-33l50-44c98-88 147-141 183-206l8-14h-8l-12-2c-3-2-5 0-9 8a593 593 0 01-72 106l-87 90-81 85a2209 2209 0 0028-23zm-277-11c-3-22-4-147-2-316 2-113 1-134-10-158l-7-12c-1 0-3 6-4 13-1 9-4 14-8 18s-6 8-6 14c4 16 10 59 12 77 3 22-12-62-14-66-3-5-5-14-6-9-1 3-7 9-13 13-7 5-12 11-12 14l6 18c8 17 17 53 23 95 6 37 7 51 17 157 4 38 9 82 12 98 5 33 12 66 14 65zm40-146c18-200 21-240 24-336 1-87 0-109-8-116-3-3-5-3-9 1-6 6-5 48 1 83a1388 1388 0 01-10 311 1671 1671 0 00-13 214zm233 108c50-46 96-93 119-124 36-46 71-106 65-112-3-2-7 2-20 24-33 58-70 104-145 178-34 33-62 64-68 73l-11 17 8-8zm-367 31l-41-74c-81-143-100-183-122-255-16-56-21-97-23-167-2-55-2-56-8-61-13-11-14-8-11 37v28c-1 5-2 5-2-1-1-22-5-59-8-63-3-7-11-7-13-2-3 7-2 31 2 49 5 23 9 37 23 69 6 14 11 27 10 28a482 482 0 01-51-128c-5-5-19-5-21 0-2 7 9 33 36 85 28 56 41 87 43 103a1567 1567 0 00-83-164c-7-7-14-6-14 2s6 20 24 48c17 25 48 91 75 155 27 61 81 172 102 205 9 15 31 46 49 70l37 50c8 13 7 7-4-14zm-626-27c-7-6-60-32-62-30s-1 2 33 18c35 17 37 18 29 12zm767-40c2-15 6-56 8-90 2-35 7-85 11-115 6-38 9-71 11-113l5-94c5-63 3-100-5-107-3-1-3 17-4 72 0 80-1 95-17 249-11 114-14 155-16 206-2 41 1 38 7-8zm-25-44a4638 4638 0 0016-225c10-99 6-174-12-215-5-12-10-15-13-9a1032 1032 0 0113 317c-10 92-13 125-14 169l-1 43 3-20zm-776 54c0-2-16-12-19-12l-1 3c1 2 9 7 19 10zm188-15l-23-5a452 452 0 01-89-27c12 9 41 23 59 27 16 5 56 8 53 5zm867-44c38-36 69-74 107-131l25-34c9-11 9-11 5-19l-5-9c-2-2-20 21-34 46-22 37-30 47-68 87s-58 65-69 85l-8 13 11-8zm-810 30l13-2-8-5a405 405 0 01-139-128c-1 0-2 4-1 11l2 11-10 1c-16 1-13 8 8 20 11 5 20 11 21 13 3 5-1 5-13-1l-19-8c-7-2-15 2-11 6 10 9 48 36 62 44 18 11 16 12-7 4-10-3-21-10-30-18-17-13-22-15-28-7-2 4-6 7-9 9-5 3-5 3 10 13 43 30 105 44 159 37zm679-68c24-77 30-110 28-178-1-142 0-166 10-194 2-4 1-4-6-4-8 1-9 3-12 10-6 19-8 60-9 142a1005 1005 0 01-36 295c0 3 16-40 25-71zm-646 50l-43-29c-46-30-75-55-90-78-12-18-14-18-4-1 24 42 53 67 109 97 24 12 34 16 28 11zm144-1l-47-44c-69-64-122-124-159-178-6-10 7 17 17 35 25 42 67 88 118 130a26996 26996 0 0171 57zm9-33l-36-43c-38-42-42-47-76-97-40-57-80-110-80-104l12 27c19 39 40 71 75 112 16 19 111 117 113 117 1-1-3-6-8-12zm-111-14a1150 1150 0 01-129-138c-1 0 10 21 25 42a459 459 0 00117 108zm-107-19c-24-24-45-50-60-76-9-15-9-9 1 12 12 27 32 51 62 73l20 14zm558-78c9-106 6-197-9-251l-5-20-3 9c-5 13-5 20 1 42 9 37 11 73 9 199v97zm199 54c16-47 18-68 20-193 3-62 3-114 2-116-2-6-5-3-7 8l-3 107c-1 63-3 108-5 130a484 484 0 01-17 92zm-646 25a1215 1215 0 01-125-147c-2 2 14 32 26 51a462 462 0 0099 96zm-78-21a1205 1205 0 01-73-95c0 5 20 43 31 58a258 258 0 0057 55zm-42-16l-32-45c-19-30-21-32-16-17 7 17 26 48 38 61 9 10 24 22 26 22zm907-9c26-30 70-99 67-102-2-2-12 4-19 11l-22 33a1274 1274 0 01-50 80l-6 11 6-5zm-774 11c-9-8-35-44-60-82-33-50-56-82-58-81a281 281 0 0057 101 535 535 0 0061 62zm62-5c-2-8-14-24-60-86-45-59-84-106-76-88a809 809 0 00137 178zm562-21c10-44 12-72 15-178l1-112c-1-2-2-4-4-4-3 0-6 8-11 29-4 18-5 29-4 92 1 110 1 158-1 177-2 22-1 21 4-4zm-593-66c-7-12-18-26-36-46l-29-38c-21-32-38-45-38-32 0 5 12 22 25 37a17040 17040 0 0183 89zm646-145c2-41 2-50-1-54-9-15-13-3-13 42l3 66 4 32 2-19z"/>
</svg>
